<?xml version="1.0" encoding="utf-8"?>
<svg viewBox="7.501 51.311 817.968 580.68" xmlns="http://www.w3.org/2000/svg">
  <path d="M 621.105 133.036 C 492.066 33.572 312.543 29.508 181.572 126.419 C 112.338 177.651 58.663 256.03 68.429 375.37 C 71.88 417.582 81.487 452.212 95.501 480.561 C 152.266 595.485 385.413 591.059 398.362 591.043 C 406.75 591.034 415.139 591.222 423.528 591.605 C 452.911 592.954 482.14 596.649 510.934 602.656 C 551.988 611.213 604.252 615.512 650.948 599.305 C 658.882 596.565 666.591 593.212 674.007 589.279 C 699.668 575.642 728.395 562.61 745.189 530.264 C 757.81 505.988 767.005 475.548 771.431 437.635 C 787.536 299.56 707.058 199.29 621.105 133.036 Z" fill="#f2f2f2"/>
  <ellipse cx="424.092" cy="593.257" rx="368.989" ry="34.637" fill="#3f3d56"/>
  <ellipse cx="406.066" cy="593.257" rx="343.188" ry="16.258" opacity="0.1"/>
  <polygon points="595.923 129.375 595.923 168.234 545.333 168.234 545.333 592.021 650.913 592.021 650.913 184.365 650.913 168.234 650.913 129.375 595.923 129.375" fill="#575a89"/>
  <polygon points="317.309 390.392 317.309 323.672 252.788 323.672 252.788 390.392 228.593 390.392 228.593 592.754 340.771 592.754 340.771 390.392 317.309 390.392" fill="#575a89"/>
  <rect x="241.056" y="498.905" width="87.25" height="94.582" fill="#3f3d56"/>
  <rect x="241.056" y="498.905" width="13.931" height="94.582" opacity="0.1"/>
  <polygon points="507.94 108.112 507.94 130.841 378.897 130.841 378.897 108.112 340.771 108.112 340.771 593.487 545.333 593.487 545.333 108.112 507.94 108.112" fill="#3f3d56"/>
  <rect x="507.939" y="108.112" width="28.595" height="22.729" opacity="0.1"/>
  <rect x="340.771" y="108.112" width="28.595" height="485.375" opacity="0.1"/>
  <polygon points="194.866 246.686 194.866 228.356 175.803 228.356 175.803 246.686 141.342 246.686 141.342 593.487 228.593 593.487 228.593 246.686 194.866 246.686" fill="#3f3d56"/>
  <rect x="175.802" y="228.356" width="10.265" height="18.33" opacity="0.1"/>
  <rect x="141.342" y="246.686" width="10.265" height="346.801" opacity="0.1"/>
  <rect x="507.939" y="295.077" width="28.595" height="298.41" opacity="0.1"/>
  <rect x="202.197" y="246.686" width="26.395" height="63.788" opacity="0.1"/>
  <rect x="372.298" y="169.7" width="41.059" height="17.597" fill="#ff6584"/>
  <rect x="459.548" y="350.799" width="41.059" height="17.597" fill="#ff6584"/>
  <rect x="372.298" y="477.642" width="41.059" height="17.597" fill="#ff6584"/>
  <rect x="164.804" y="325.871" width="41.059" height="17.597" fill="#ff6584"/>
  <rect x="264.519" y="509.169" width="41.059" height="17.597" fill="#ff6584"/>
  <rect x="249.855" y="405.789" width="70.387" height="29.328" opacity="0.1"/>
  <rect x="557.796" y="201.961" width="70.387" height="29.328" opacity="0.1"/>
  <rect x="557.796" y="264.282" width="70.387" height="29.328" opacity="0.1"/>
  <rect x="557.796" y="326.604" width="70.387" height="29.328" opacity="0.1"/>
  <rect x="557.796" y="388.925" width="70.387" height="29.328" opacity="0.1"/>
  <rect x="557.796" y="451.247" width="70.387" height="29.328" opacity="0.1"/>
  <rect x="557.796" y="513.568" width="70.387" height="29.328" opacity="0.1"/>
  <polygon points="675.108 334.669 675.108 254.751 623.784 254.751 623.784 334.669 605.454 334.669 605.454 593.487 692.705 593.487 692.705 334.669 675.108 334.669" fill="#3f3d56"/>
  <rect x="623.784" y="254.751" width="16.13" height="79.918" opacity="0.1"/>
  <rect x="605.454" y="334.669" width="16.13" height="258.818" opacity="0.1"/>
  <rect x="649.446" y="464.444" width="43.258" height="25.662" opacity="0.1"/>
  <rect x="650.912" y="426.318" width="41.059" height="17.597" fill="#ff6584"/>
  <path d="M 820.484 444.083 C 820.484 509.404 781.651 532.212 733.749 532.212 C 685.847 532.212 647.014 509.404 647.014 444.083 C 647.014 378.762 733.749 295.663 733.749 295.663 C 733.749 295.663 820.484 378.762 820.484 444.083 Z" fill="#6c63ff"/>
  <polygon points="730.59 522.22 731.478 467.552 768.446 399.92 731.617 458.976 732.017 434.395 757.495 385.464 732.121 427.891 732.121 427.891 732.841 383.681 760.123 344.725 732.953 376.729 733.402 295.663 730.582 402.979 730.814 398.552 703.075 356.093 730.369 407.051 727.784 456.426 727.707 455.115 695.73 410.433 727.611 459.745 727.287 465.92 727.229 466.012 727.256 466.519 720.699 591.788 729.46 591.788 730.511 527.084 762.314 477.894 730.59 522.22" fill="#3f3d56"/>
  <path d="M 184.811 444.79 C 184.811 510.111 145.979 532.919 98.076 532.919 C 50.174 532.919 11.342 510.111 11.342 444.79 C 11.342 379.469 98.076 296.37 98.076 296.37 C 98.076 296.37 184.811 379.469 184.811 444.79 Z" fill="#6c63ff"/>
  <polygon points="94.917 522.927 95.805 468.259 132.774 400.627 95.945 459.683 96.344 435.102 121.822 386.171 96.45 428.597 96.45 428.598 97.168 384.388 124.451 345.432 97.281 377.436 97.73 296.37 94.909 403.686 95.141 399.259 67.402 356.8 94.696 407.757 92.112 457.132 92.035 455.822 60.057 411.14 91.938 460.452 91.615 466.626 91.557 466.719 91.583 467.226 85.026 592.494 93.787 592.494 94.838 527.791 126.641 478.601 94.917 522.927" fill="#3f3d56"/>
</svg>